<svg width="20" height="20" viewBox="0 0 20 20" fill="none" xmlns="http://www.w3.org/2000/svg">
<path d="M11.666 5.62499H8.33268C7.53268 5.62499 6.04102 5.62499 6.04102 3.33332C6.04102 1.04166 7.53268 1.04166 8.33268 1.04166H11.666C12.466 1.04166 13.9577 1.04166 13.9577 3.33332C13.9577 4.13332 13.9577 5.62499 11.666 5.62499ZM8.33268 2.29166C7.50768 2.29166 7.29102 2.29166 7.29102 3.33332C7.29102 4.37499 7.50768 4.37499 8.33268 4.37499H11.666C12.7077 4.37499 12.7077 4.15832 12.7077 3.33332C12.7077 2.29166 12.491 2.29166 11.666 2.29166H8.33268Z" fill="#FAAF3A"/>
<path d="M11.6667 18.9583H7.5C2.81667 18.9583 1.875 16.8083 1.875 13.3333V8.33334C1.875 4.53334 3.25 2.90834 6.63333 2.73334C6.95833 2.71667 7.275 2.975 7.29167 3.325C7.30833 3.675 7.04167 3.95834 6.7 3.975C4.33333 4.10834 3.125 4.81667 3.125 8.33334V13.3333C3.125 16.4167 3.73333 17.7083 7.5 17.7083H11.6667C12.0083 17.7083 12.2917 17.9917 12.2917 18.3333C12.2917 18.675 12.0083 18.9583 11.6667 18.9583Z" fill="#FAAF3A"/>
<path d="M17.4994 13.125C17.1578 13.125 16.8744 12.8417 16.8744 12.5V8.33335C16.8744 4.81668 15.6661 4.10835 13.2994 3.97501C12.9578 3.95835 12.6911 3.65835 12.7078 3.31668C12.7244 2.97501 13.0244 2.70835 13.3661 2.72501C16.7494 2.90835 18.1244 4.53335 18.1244 8.32501V12.4917C18.1244 12.8417 17.8411 13.125 17.4994 13.125Z" fill="#FAAF3A"/>
<path d="M12.5 16.4583C12.1583 16.4583 11.875 16.175 11.875 15.8333V13.3333C11.875 12.9917 12.1583 12.7083 12.5 12.7083H15C15.3417 12.7083 15.625 12.9917 15.625 13.3333C15.625 13.675 15.3417 13.9583 15 13.9583H13.125V15.8333C13.125 16.175 12.8417 16.4583 12.5 16.4583Z" fill="#FAAF3A"/>
<path d="M17.4997 18.9583C17.3414 18.9583 17.1831 18.9 17.0581 18.775L12.0914 13.8083C11.8497 13.5667 11.8497 13.1667 12.0914 12.925C12.3331 12.6833 12.7331 12.6833 12.9747 12.925L17.9414 17.8917C18.1831 18.1333 18.1831 18.5333 17.9414 18.775C17.8164 18.9 17.6581 18.9583 17.4997 18.9583Z" fill="#FAAF3A"/>
</svg>
