<svg width="24" height="24" viewBox="0 0 24 24" fill="none" xmlns="http://www.w3.org/2000/svg">
<path d="M12.0009 14.17C9.87086 14.17 8.13086 12.44 8.13086 10.3C8.13086 8.16 9.87086 6.44 12.0009 6.44C14.1309 6.44 15.8709 8.17 15.8709 10.31C15.8709 12.45 14.1309 14.17 12.0009 14.17ZM12.0009 7.94C10.7009 7.94 9.63086 9 9.63086 10.31C9.63086 11.62 10.6909 12.68 12.0009 12.68C13.3109 12.68 14.3709 11.62 14.3709 10.31C14.3709 9 13.3009 7.94 12.0009 7.94Z" fill="#FAAF3A"/>
<path fill-rule="evenodd" clip-rule="evenodd" d="M12 2.75C7.44365 2.75 3.75 6.44365 3.75 11C3.75 13.6807 5.55622 16.2436 7.63902 18.2038C8.66431 19.1688 9.71959 19.9523 10.5724 20.4909C10.9993 20.7605 11.3665 20.9631 11.6463 21.0952C11.7868 21.1615 11.8956 21.2055 11.9727 21.2313C11.9829 21.2348 11.992 21.2377 12 21.2401C12.008 21.2377 12.0171 21.2348 12.0273 21.2313C12.1044 21.2055 12.2132 21.1615 12.3537 21.0952C12.6335 20.9631 13.0007 20.7605 13.4276 20.4909C14.2804 19.9523 15.3357 19.1688 16.361 18.2038C18.4438 16.2436 20.25 13.6807 20.25 11C20.25 6.44365 16.5563 2.75 12 2.75ZM2.25 11C2.25 5.61522 6.61522 1.25 12 1.25C17.3848 1.25 21.75 5.61522 21.75 11C21.75 14.3193 19.5562 17.2564 17.389 19.2962C16.2893 20.3312 15.1571 21.1727 14.2286 21.7591C13.7649 22.052 13.3431 22.2869 12.994 22.4517C12.82 22.5338 12.6544 22.6031 12.5044 22.6534C12.3715 22.698 12.1877 22.75 12 22.75C11.8123 22.75 11.6285 22.698 11.4956 22.6534C11.3456 22.6031 11.18 22.5338 11.006 22.4517C10.6569 22.2869 10.2351 22.052 9.77138 21.7591C8.84291 21.1727 7.71068 20.3312 6.61098 19.2962C4.44378 17.2564 2.25 14.3193 2.25 11Z" fill="#FAAF3A"/>
</svg>
