<svg width="24" height="24" viewBox="0 0 24 24" fill="none" xmlns="http://www.w3.org/2000/svg">
<path d="M15.8101 20.18C15.5501 20.18 15.2801 20.17 14.9901 20.14C14.4701 20.1 13.8801 20 13.2701 19.85L11.5901 19.45C6.98007 18.36 5.47007 15.92 6.55007 11.32L7.53007 7.13C7.75007 6.18 8.01007 5.41 8.33007 4.77C10.0501 1.22 13.3401 1.54 15.6801 2.09L17.3501 2.48C19.6901 3.03 21.1701 3.9 22.0001 5.23C22.8201 6.56 22.9501 8.27 22.4001 10.61L21.4201 14.79C20.5601 18.45 18.7701 20.18 15.8101 20.18ZM13.1201 3.25C11.4501 3.25 10.3901 3.94 9.68007 5.42C9.42007 5.96 9.19007 6.63 8.99007 7.47L8.01007 11.66C7.12007 15.44 8.15007 17.09 11.9301 17.99L13.6101 18.39C14.1501 18.52 14.6601 18.6 15.1201 18.64C17.8401 18.91 19.1901 17.72 19.9501 14.45L20.9301 10.27C21.3801 8.34 21.3201 6.99 20.7201 6.02C20.1201 5.05 18.9401 4.39 17.0001 3.94L15.3301 3.55C14.5001 3.35 13.7601 3.25 13.1201 3.25Z" fill="#FAAF3A"/>
<path d="M8.32907 22.25C5.75908 22.25 4.11907 20.71 3.06907 17.46L1.78907 13.51C0.369075 9.11 1.63907 6.63 6.01907 5.21L7.59907 4.7C8.11907 4.54 8.50907 4.43 8.85907 4.37C9.14907 4.31 9.42908 4.42 9.59908 4.65C9.76908 4.88 9.79908 5.18 9.67908 5.44C9.41908 5.97 9.18907 6.64 8.99907 7.48L8.01908 11.67C7.12908 15.45 8.15907 17.1 11.9391 18L13.6191 18.4C14.1591 18.53 14.6691 18.61 15.1291 18.65C15.4491 18.68 15.7091 18.9 15.7991 19.21C15.8791 19.52 15.7591 19.84 15.4991 20.02C14.8391 20.47 14.0091 20.85 12.9591 21.19L11.3791 21.71C10.2291 22.07 9.22907 22.25 8.32907 22.25ZM7.77908 6.22L6.48907 6.64C2.91907 7.79 2.06907 9.47001 3.21907 13.05L4.49907 17C5.65907 20.57 7.33908 21.43 10.9091 20.28L12.4891 19.76C12.5491 19.74 12.5991 19.72 12.6591 19.7L11.5991 19.45C6.98908 18.36 5.47907 15.92 6.55907 11.32L7.53907 7.13C7.60908 6.81 7.68907 6.5 7.77908 6.22Z" fill="#FAAF3A"/>
<path d="M17.4894 10.51C17.4294 10.51 17.3694 10.5 17.2994 10.49L12.4494 9.26001C12.0494 9.16001 11.8094 8.75001 11.9094 8.35001C12.0094 7.95001 12.4194 7.71001 12.8194 7.81001L17.6694 9.04001C18.0694 9.14001 18.3094 9.55001 18.2094 9.95001C18.1294 10.28 17.8194 10.51 17.4894 10.51Z" fill="#FAAF3A"/>
<path d="M14.5592 13.89C14.4992 13.89 14.4392 13.88 14.3692 13.87L11.4592 13.13C11.0592 13.03 10.8192 12.62 10.9192 12.22C11.0192 11.82 11.4292 11.58 11.8292 11.68L14.7392 12.42C15.1392 12.52 15.3792 12.93 15.2792 13.33C15.1992 13.67 14.8992 13.89 14.5592 13.89Z" fill="#FAAF3A"/>
</svg>
